<svg width="40" height="26" viewBox="0 0 40 26" fill="none" xmlns="http://www.w3.org/2000/svg">
<path d="M39.6875 25.0367H0.3125C0.139922 25.0367 0 24.9048 0 24.7421V0.294583C0 0.1319 0.139922 0 0.3125 0H39.6875C39.8601 0 40 0.1319 40 0.294583V24.7421C40 24.9048 39.8601 25.0367 39.6875 25.0367Z" fill="#4BA543"/>
<path d="M37.5855 0V25.0367H39.6875C39.86 25.0367 40 24.9048 40 24.7421V0.294583C40 0.1319 39.86 0 39.6875 0H37.5855Z" fill="#43A047"/>
<path d="M5.47825 12.2767L19.8213 2.84878C19.9287 2.77815 20.0713 2.77815 20.1788 2.84878L34.5217 12.2767C34.7001 12.3939 34.7001 12.6427 34.5217 12.76L20.1788 22.1879C20.0713 22.2585 19.9287 22.2585 19.8213 22.1879L5.47825 12.76C5.29989 12.6427 5.29989 12.3939 5.47825 12.2767V12.2767Z" fill="#FECE3F"/>
<path d="M20 17.9809C23.2004 17.9809 25.7948 15.5352 25.7948 12.5183C25.7948 9.50145 23.2004 7.05579 20 7.05579C16.7996 7.05579 14.2052 9.50145 14.2052 12.5183C14.2052 15.5352 16.7996 17.9809 20 17.9809Z" fill="#2387EB"/>
<path d="M20 7.05579C19.5859 7.05579 19.1823 7.09747 18.7927 7.17531C21.4135 7.69901 23.3803 9.89182 23.3803 12.5183C23.3803 15.1448 21.4134 17.3376 18.7927 17.8613C19.1823 17.9392 19.5859 17.9809 20 17.9809C23.2004 17.9809 25.7948 15.5352 25.7948 12.5183C25.7948 9.50142 23.2004 7.05579 20 7.05579Z" fill="#207BD6"/>
<path d="M14.3063 11.5056L25.4975 14.2454C25.6893 13.7024 25.7948 13.1221 25.7948 12.5183C25.7948 12.3296 25.7846 12.1431 25.7648 11.9593L15.2539 9.38602C14.7899 10.0096 14.4609 10.7284 14.3063 11.5056Z" fill="#EFEFEF"/>
<path d="M23.2453 13.694L25.4975 14.2454C25.6893 13.7024 25.7948 13.1221 25.7948 12.5183C25.7948 12.3296 25.7846 12.1431 25.7648 11.9593L23.2452 11.3424C23.3334 11.7212 23.3803 12.1145 23.3803 12.5183C23.3803 12.922 23.3334 13.3153 23.2453 13.694V13.694Z" fill="#DCDCDC"/>
</svg>
