<svg width="40" height="26" viewBox="0 0 40 26" fill="none" xmlns="http://www.w3.org/2000/svg">
<path d="M40 0.000274658H0V25.0366H40V0.000274658Z" fill="#F0F0F0"/>
<path d="M22.5 0H17.5V10.1709H0V14.8651H17.5V25.036H22.5V14.8651H40V10.1709H22.5V0Z" fill="#D80027"/>
<path d="M30.7644 16.8721L40 21.6893V16.8721H30.7644Z" fill="#0052B4"/>
<path d="M24.3478 16.8721L40 25.036V22.7274L28.774 16.8721H24.3478Z" fill="#0052B4"/>
<path d="M35.8308 25.036L24.3478 19.0461V25.036H35.8308Z" fill="#0052B4"/>
<path d="M24.3478 16.8721L40 25.036V22.7274L28.774 16.8721H24.3478Z" fill="#F0F0F0"/>
<path d="M24.3478 16.8721L40 25.036V22.7274L28.774 16.8721H24.3478Z" fill="#D80027"/>
<path d="M7.05786 16.8719L0 20.5533V16.8719H7.05786Z" fill="#0052B4"/>
<path d="M15.6522 17.9101V25.0359H1.99146L15.6522 17.9101Z" fill="#0052B4"/>
<path d="M11.226 16.8721L0 22.7274V25.036L15.6522 16.8721H11.226Z" fill="#D80027"/>
<path d="M9.2356 8.16395L0 3.34674V8.16395H9.2356Z" fill="#0052B4"/>
<path d="M15.6522 8.16392L0 0V2.30855L11.226 8.16392H15.6522Z" fill="#0052B4"/>
<path d="M4.16922 0L15.6523 5.98989V0H4.16922Z" fill="#0052B4"/>
<path d="M15.6522 8.16392L0 0V2.30855L11.226 8.16392H15.6522Z" fill="#F0F0F0"/>
<path d="M15.6522 8.16392L0 0V2.30855L11.226 8.16392H15.6522Z" fill="#D80027"/>
<path d="M32.9421 8.16406L40 4.48273V8.16406H32.9421Z" fill="#0052B4"/>
<path d="M24.3478 7.12589V6.10352e-05H38.0085L24.3478 7.12589Z" fill="#0052B4"/>
<path d="M28.774 8.16392L40 2.30855V0L24.3478 8.16392H28.774Z" fill="#D80027"/>
</svg>
