<svg width="115" height="120" viewBox="0 0 115 120" fill="none" xmlns="http://www.w3.org/2000/svg">
<rect y="2" width="115" height="115" rx="4" fill="black"/>
<path d="M11.3906 86.1719L22.2656 86.0781L23.2031 23.3125L11.1094 23.125V21.3906L36.1875 21.6719L58.3594 64.8438L73.875 21.8594L101.25 22.1406V23.875L91.5469 23.7812C91.5156 24.0625 91.4688 24.6563 91.4062 25.5625C91.375 26.4375 91.3125 27.8125 91.2188 29.6875C91.1562 31.5625 91.0781 34.0156 90.9844 37.0469C90.8906 40.0781 90.7812 43.875 90.6562 48.4375C90.5312 52.9688 90.4062 58.3594 90.2812 64.6094C90.1562 70.8594 90.0312 78.1406 89.9062 86.4531H101.438V88.1875H61.3125V86.4531H72.375L73.5 27.8125L51.2344 89.1719L24.6562 38.0781L23.9531 86.0781L34.3594 85.9844V87.7188L11.3906 87.9062V86.1719Z" fill="#E56700"/>
</svg>
